<?xml version='1.0' encoding='utf-8'?>
<svg xmlns="http://www.w3.org/2000/svg" xmlns:xlink="http://www.w3.org/1999/xlink" width="2000" viewBox="0 0 1500 525.000007" height="700" preserveAspectRatio="xMidYMid meet"><defs><g/><clipPath id="4d63e8c4c1"><path d="M 36 40 L 440 40 L 440 491.789062 L 36 491.789062 Z M 36 40 " clip-rule="nonzero"/></clipPath><clipPath id="db51363174"><rect x="0" width="925" y="0" height="459"/></clipPath></defs><g clip-path="url(#4d63e8c4c1)"><path fill="#3e5379" d="M 377.746094 461.132812 C 420.800781 432.558594 443.597656 394.039062 438.105469 340.886719 C 435.222656 313.082031 423.519531 290.214844 402.957031 271.6875 C 398.867188 268.011719 397.554688 265.347656 402.433594 261.042969 C 410.753906 253.699219 417.9375 245.289062 423.554688 235.582031 C 436.71875 212.824219 441.003906 188.695312 438.25 162.421875 C 434.988281 131.433594 420.691406 106.53125 398.542969 86.289062 C 366.347656 56.847656 326.734375 44.171875 283.949219 41.308594 C 228.90625 37.636719 177.945312 49.195312 132.246094 82.023438 C 98.25 106.441406 72.191406 137.175781 55.609375 175.097656 C 40.125 210.519531 34.074219 247.828125 37.800781 287.0625 C 42.375 335.304688 60.054688 377.617188 91.585938 413.488281 C 137.054688 465.222656 194.945312 491.347656 267.023438 491.65625 C 304.476562 490.464844 343.28125 484 377.746094 461.132812 Z M 161.597656 407.511719 C 131.613281 385.9375 110.257812 357.324219 98.015625 321.726562 C 83.679688 280.078125 85.355469 239.183594 101.957031 199.210938 C 116.453125 164.332031 140.601562 137.085938 173.316406 117.40625 C 201.515625 100.441406 231.570312 91.710938 265.402344 93.402344 C 291.082031 91.726562 316.433594 97.128906 340.113281 108.78125 C 375.316406 126.121094 395.878906 157.433594 384.839844 197.5 C 377.53125 224.039062 360.585938 238.105469 331.507812 241.039062 C 312.582031 242.949219 294.484375 238.96875 277.503906 230.773438 C 260.273438 222.472656 242.824219 229.730469 233.226562 239.90625 C 222.675781 251.070312 220.511719 270.171875 227.625 284.433594 C 236.125 301.488281 262.035156 309.265625 279 300.875 C 300.96875 290 324.125 287.476562 347.800781 294.769531 C 380.917969 304.960938 396.925781 348.070312 382.410156 380.121094 C 367.375 413.34375 338.527344 428.21875 305.199219 435.132812 C 253.808594 445.808594 204.847656 438.625 161.597656 407.511719 Z M 161.597656 407.511719 " fill-opacity="1" fill-rule="nonzero"/></g><path fill="#3e5379" d="M 327.90625 379.527344 C 338.367188 373.296875 341.789062 360.855469 337.863281 348.644531 C 334.460938 338.058594 326.300781 333.015625 313.609375 332.601562 C 305.304688 332.332031 298.679688 336.457031 291.585938 339.425781 C 264.304688 350.84375 238.230469 347.3125 215.203125 330.0625 C 189.597656 310.886719 178.792969 284.542969 183.832031 252.078125 C 189.289062 216.929688 221.089844 189.089844 255.949219 186.875 C 271.671875 185.882812 286.074219 189.394531 300.136719 196.203125 C 315.101562 203.441406 331.738281 199.121094 336.691406 186.660156 C 341.839844 173.75 340.726562 157.757812 322.558594 149.132812 C 303.398438 140.023438 283.644531 133.988281 262.179688 134.816406 C 258.292969 134.816406 254.367188 134.582031 250.496094 134.890625 C 246.640625 135.179688 242.804688 135.878906 239.007812 136.601562 C 194.386719 144.917969 162.082031 170.058594 142.671875 210.519531 C 126.859375 243.453125 125.4375 277.71875 138.960938 312.34375 C 154.734375 352.714844 183.726562 378.753906 224.332031 392.097656 C 244.210938 398.632812 264.808594 399.082031 285.425781 395.625 C 300.644531 393.105469 314.796875 387.34375 327.90625 379.527344 Z M 327.90625 379.527344 " fill-opacity="1" fill-rule="nonzero"/><g transform="matrix(1, 0, 0, 1, 524, 51)"><g clip-path="url(#db51363174)"><g fill="#3e5379" fill-opacity="1"><g transform="translate(0.359376, 109.00761)"><g><path d="M 49.484375 0 L 28.734375 0 L 28.734375 -83 L 2.90625 -83 L 2.90625 -103.609375 L 75.3125 -103.609375 L 75.3125 -83 L 49.484375 -83 Z M 49.484375 0 "/></g></g></g><g fill="#3e5379" fill-opacity="1"><g transform="translate(79.732179, 109.00761)"><g><path d="M 84.15625 0 L 63.40625 0 L 63.40625 -41.5 L 32.359375 -41.5 L 32.359375 0 L 11.609375 0 L 11.609375 -103.75 L 32.359375 -103.75 L 32.359375 -62.25 L 63.40625 -62.25 L 63.40625 -103.75 L 84.15625 -103.75 Z M 84.15625 0 "/></g></g></g><g fill="#3e5379" fill-opacity="1"><g transform="translate(175.647028, 109.00761)"><g><path d="M 65.296875 0 L 11.609375 0 L 11.609375 -103.75 L 63.5625 -103.75 L 63.5625 -83 L 32.359375 -83 L 32.359375 -62.25 L 59.640625 -62.25 L 59.640625 -41.5 L 32.359375 -41.5 L 32.359375 -20.75 L 65.296875 -20.75 Z M 65.296875 0 "/></g></g></g><g fill="#3e5379" fill-opacity="1"><g transform="translate(248.780292, 109.00761)"><g/></g></g><g fill="#3e5379" fill-opacity="1"><g transform="translate(289.990273, 109.00761)"><g><path d="M 43.390625 2.171875 L 0.875 -103.75 L 24.234375 -103.75 L 45.125 -50.78125 L 65.4375 -102.734375 L 66.453125 -102.734375 L 86.78125 -50.78125 L 107.671875 -103.75 L 131.03125 -103.75 L 88.65625 1.734375 L 84.890625 1.734375 L 65.875 -44.265625 L 47.015625 2.171875 Z M 43.390625 2.171875 "/></g></g></g><g fill="#3e5379" fill-opacity="1"><g transform="translate(422.036439, 109.00761)"><g><path d="M 77.640625 -79.671875 C 75.703125 -80.734375 73.351562 -81.742188 70.59375 -82.703125 C 67.832031 -83.671875 64.179688 -84.15625 59.640625 -84.15625 C 53.734375 -84.15625 48.703125 -83.019531 44.546875 -80.75 C 40.390625 -78.476562 37.050781 -75.457031 34.53125 -71.6875 C 32.019531 -67.914062 30.328125 -63.78125 29.453125 -59.28125 C 28.585938 -54.78125 28.585938 -50.28125 29.453125 -45.78125 C 30.328125 -41.28125 32.019531 -37.144531 34.53125 -33.375 C 37.050781 -29.601562 40.390625 -26.578125 44.546875 -24.296875 C 48.703125 -22.023438 53.734375 -20.890625 59.640625 -20.890625 C 64.179688 -20.890625 68.171875 -21.421875 71.609375 -22.484375 C 75.046875 -23.554688 77.734375 -24.578125 79.671875 -25.546875 L 82.421875 -4.0625 C 79.234375 -2.800781 75.554688 -1.757812 71.390625 -0.9375 C 67.234375 -0.113281 63.316406 0.296875 59.640625 0.296875 C 50.835938 0.296875 43.144531 -1.175781 36.5625 -4.125 C 29.988281 -7.082031 24.5 -11.078125 20.09375 -16.109375 C 15.695312 -21.140625 12.410156 -26.773438 10.234375 -33.015625 C 8.054688 -39.253906 6.96875 -45.707031 6.96875 -52.375 C 6.96875 -59.050781 8.054688 -65.507812 10.234375 -71.75 C 12.410156 -77.988281 15.695312 -83.625 20.09375 -88.65625 C 24.5 -93.6875 29.988281 -97.675781 36.5625 -100.625 C 43.144531 -103.582031 50.835938 -105.0625 59.640625 -105.0625 C 67.179688 -105.0625 74 -103.707031 80.09375 -101 Z M 77.640625 -79.671875 "/></g></g></g><g fill="#3e5379" fill-opacity="1"><g transform="translate(509.390053, 109.00761)"><g><path d="M 11.609375 -103.75 L 32.359375 -103.75 L 32.359375 -20.75 L 65.296875 -20.75 L 65.296875 0 L 11.609375 0 Z M 11.609375 -103.75 "/></g></g></g><g fill="#3e5379" fill-opacity="1"><g transform="translate(580.927147, 109.00761)"><g/></g></g><g fill="#3e5379" fill-opacity="1"><g transform="translate(622.13718, 109.00761)"><g><path d="M 77.640625 -79.671875 C 75.703125 -80.734375 73.351562 -81.742188 70.59375 -82.703125 C 67.832031 -83.671875 64.179688 -84.15625 59.640625 -84.15625 C 53.734375 -84.15625 48.703125 -83.019531 44.546875 -80.75 C 40.390625 -78.476562 37.050781 -75.457031 34.53125 -71.6875 C 32.019531 -67.914062 30.328125 -63.78125 29.453125 -59.28125 C 28.585938 -54.78125 28.585938 -50.28125 29.453125 -45.78125 C 30.328125 -41.28125 32.019531 -37.144531 34.53125 -33.375 C 37.050781 -29.601562 40.390625 -26.578125 44.546875 -24.296875 C 48.703125 -22.023438 53.734375 -20.890625 59.640625 -20.890625 C 64.179688 -20.890625 68.171875 -21.421875 71.609375 -22.484375 C 75.046875 -23.554688 77.734375 -24.578125 79.671875 -25.546875 L 82.421875 -4.0625 C 79.234375 -2.800781 75.554688 -1.757812 71.390625 -0.9375 C 67.234375 -0.113281 63.316406 0.296875 59.640625 0.296875 C 50.835938 0.296875 43.144531 -1.175781 36.5625 -4.125 C 29.988281 -7.082031 24.5 -11.078125 20.09375 -16.109375 C 15.695312 -21.140625 12.410156 -26.773438 10.234375 -33.015625 C 8.054688 -39.253906 6.96875 -45.707031 6.96875 -52.375 C 6.96875 -59.050781 8.054688 -65.507812 10.234375 -71.75 C 12.410156 -77.988281 15.695312 -83.625 20.09375 -88.65625 C 24.5 -93.6875 29.988281 -97.675781 36.5625 -100.625 C 43.144531 -103.582031 50.835938 -105.0625 59.640625 -105.0625 C 67.179688 -105.0625 74 -103.707031 80.09375 -101 Z M 77.640625 -79.671875 "/></g></g></g><g fill="#3e5379" fill-opacity="1"><g transform="translate(709.490742, 109.00761)"><g><path d="M 11.609375 -103.75 L 32.359375 -103.75 L 32.359375 -20.75 L 65.296875 -20.75 L 65.296875 0 L 11.609375 0 Z M 11.609375 -103.75 "/></g></g></g><g fill="#3e5379" fill-opacity="1"><g transform="translate(781.027836, 109.00761)"><g><path d="M 63.265625 0 L 42.375 -39.609375 L 32.359375 -39.609375 L 32.359375 0 L 11.609375 0 L 11.609375 -103.75 L 52.53125 -103.75 C 58.71875 -103.75 63.960938 -102.46875 68.265625 -99.90625 C 72.578125 -97.34375 75.941406 -94.003906 78.359375 -89.890625 C 80.773438 -85.785156 82.273438 -81.335938 82.859375 -76.546875 C 83.441406 -71.753906 83.078125 -67.0625 81.765625 -62.46875 C 80.460938 -57.875 78.238281 -53.8125 75.09375 -50.28125 C 71.945312 -46.75 67.8125 -44.257812 62.6875 -42.8125 L 86.78125 0 Z M 32.359375 -59.78125 L 50.640625 -59.78125 C 53.441406 -59.78125 55.691406 -60.550781 57.390625 -62.09375 C 59.085938 -63.644531 60.222656 -65.582031 60.796875 -67.90625 C 61.378906 -70.226562 61.378906 -72.550781 60.796875 -74.875 C 60.222656 -77.195312 59.085938 -79.128906 57.390625 -80.671875 C 55.691406 -82.222656 53.441406 -83 50.640625 -83 L 32.359375 -83 Z M 32.359375 -59.78125 "/></g></g></g><g fill="#3e5379" fill-opacity="1"><g transform="translate(0.359376, 265.401999)"><g><path d="M 77.640625 -79.671875 C 75.703125 -80.734375 73.351562 -81.742188 70.59375 -82.703125 C 67.832031 -83.671875 64.179688 -84.15625 59.640625 -84.15625 C 53.734375 -84.15625 48.703125 -83.019531 44.546875 -80.75 C 40.390625 -78.476562 37.050781 -75.457031 34.53125 -71.6875 C 32.019531 -67.914062 30.328125 -63.78125 29.453125 -59.28125 C 28.585938 -54.78125 28.585938 -50.28125 29.453125 -45.78125 C 30.328125 -41.28125 32.019531 -37.144531 34.53125 -33.375 C 37.050781 -29.601562 40.390625 -26.578125 44.546875 -24.296875 C 48.703125 -22.023438 53.734375 -20.890625 59.640625 -20.890625 C 64.179688 -20.890625 68.171875 -21.421875 71.609375 -22.484375 C 75.046875 -23.554688 77.734375 -24.578125 79.671875 -25.546875 L 82.421875 -4.0625 C 79.234375 -2.800781 75.554688 -1.757812 71.390625 -0.9375 C 67.234375 -0.113281 63.316406 0.296875 59.640625 0.296875 C 50.835938 0.296875 43.144531 -1.175781 36.5625 -4.125 C 29.988281 -7.082031 24.5 -11.078125 20.09375 -16.109375 C 15.695312 -21.140625 12.410156 -26.773438 10.234375 -33.015625 C 8.054688 -39.253906 6.96875 -45.707031 6.96875 -52.375 C 6.96875 -59.050781 8.054688 -65.507812 10.234375 -71.75 C 12.410156 -77.988281 15.695312 -83.625 20.09375 -88.65625 C 24.5 -93.6875 29.988281 -97.675781 36.5625 -100.625 C 43.144531 -103.582031 50.835938 -105.0625 59.640625 -105.0625 C 67.179688 -105.0625 74 -103.707031 80.09375 -101 Z M 77.640625 -79.671875 "/></g></g></g><g fill="#3e5379" fill-opacity="1"><g transform="translate(87.71299, 265.401999)"><g><path d="M 61.53125 1.453125 C 52.625 1.453125 44.804688 -0.046875 38.078125 -3.046875 C 31.359375 -6.046875 25.773438 -10.082031 21.328125 -15.15625 C 16.878906 -20.238281 13.539062 -25.972656 11.3125 -32.359375 C 9.09375 -38.742188 7.984375 -45.296875 7.984375 -52.015625 C 7.984375 -58.742188 9.09375 -65.300781 11.3125 -71.6875 C 13.539062 -78.070312 16.878906 -83.800781 21.328125 -88.875 C 25.773438 -93.957031 31.359375 -98 38.078125 -101 C 44.804688 -104 52.625 -105.5 61.53125 -105.5 C 70.425781 -105.5 78.234375 -104 84.953125 -101 C 91.679688 -98 97.269531 -93.957031 101.71875 -88.875 C 106.164062 -83.800781 109.503906 -78.070312 111.734375 -71.6875 C 113.960938 -65.300781 115.078125 -58.742188 115.078125 -52.015625 C 115.078125 -45.296875 113.960938 -38.742188 111.734375 -32.359375 C 109.503906 -25.972656 106.164062 -20.238281 101.71875 -15.15625 C 97.269531 -10.082031 91.679688 -6.046875 84.953125 -3.046875 C 78.234375 -0.046875 70.425781 1.453125 61.53125 1.453125 Z M 61.53125 -20.03125 C 67.425781 -20.03125 72.5 -21.1875 76.75 -23.5 C 81.007812 -25.820312 84.394531 -28.894531 86.90625 -32.71875 C 89.425781 -36.539062 91.125 -40.722656 92 -45.265625 C 92.875 -49.816406 92.875 -54.363281 92 -58.90625 C 91.125 -63.457031 89.425781 -67.644531 86.90625 -71.46875 C 84.394531 -75.289062 81.007812 -78.359375 76.75 -80.671875 C 72.5 -82.992188 67.425781 -84.15625 61.53125 -84.15625 C 55.625 -84.15625 50.539062 -82.992188 46.28125 -80.671875 C 42.03125 -78.359375 38.644531 -75.289062 36.125 -71.46875 C 33.613281 -67.644531 31.921875 -63.457031 31.046875 -58.90625 C 30.179688 -54.363281 30.179688 -49.816406 31.046875 -45.265625 C 31.921875 -40.722656 33.613281 -36.539062 36.125 -32.71875 C 38.644531 -28.894531 42.03125 -25.820312 46.28125 -23.5 C 50.539062 -21.1875 55.625 -20.03125 61.53125 -20.03125 Z M 61.53125 -20.03125 "/></g></g></g><g fill="#3e5379" fill-opacity="1"><g transform="translate(210.617483, 265.401999)"><g><path d="M 32.359375 -56.453125 L 32.359375 0 L 11.609375 0 L 11.609375 -105.9375 L 17.125 -105.9375 L 69.5 -44.984375 L 69.5 -103.609375 L 90.40625 -103.609375 L 90.40625 2.171875 L 84.890625 2.171875 Z M 32.359375 -56.453125 "/></g></g></g><g fill="#3e5379" fill-opacity="1"><g transform="translate(312.771883, 265.401999)"><g><path d="M 32.359375 -56.453125 L 32.359375 0 L 11.609375 0 L 11.609375 -105.9375 L 17.125 -105.9375 L 69.5 -44.984375 L 69.5 -103.609375 L 90.40625 -103.609375 L 90.40625 2.171875 L 84.890625 2.171875 Z M 32.359375 -56.453125 "/></g></g></g><g fill="#3e5379" fill-opacity="1"><g transform="translate(414.926244, 265.401999)"><g><path d="M 65.296875 0 L 11.609375 0 L 11.609375 -103.75 L 63.5625 -103.75 L 63.5625 -83 L 32.359375 -83 L 32.359375 -62.25 L 59.640625 -62.25 L 59.640625 -41.5 L 32.359375 -41.5 L 32.359375 -20.75 L 65.296875 -20.75 Z M 65.296875 0 "/></g></g></g><g fill="#3e5379" fill-opacity="1"><g transform="translate(488.059521, 265.401999)"><g><path d="M 77.640625 -79.671875 C 75.703125 -80.734375 73.351562 -81.742188 70.59375 -82.703125 C 67.832031 -83.671875 64.179688 -84.15625 59.640625 -84.15625 C 53.734375 -84.15625 48.703125 -83.019531 44.546875 -80.75 C 40.390625 -78.476562 37.050781 -75.457031 34.53125 -71.6875 C 32.019531 -67.914062 30.328125 -63.78125 29.453125 -59.28125 C 28.585938 -54.78125 28.585938 -50.28125 29.453125 -45.78125 C 30.328125 -41.28125 32.019531 -37.144531 34.53125 -33.375 C 37.050781 -29.601562 40.390625 -26.578125 44.546875 -24.296875 C 48.703125 -22.023438 53.734375 -20.890625 59.640625 -20.890625 C 64.179688 -20.890625 68.171875 -21.421875 71.609375 -22.484375 C 75.046875 -23.554688 77.734375 -24.578125 79.671875 -25.546875 L 82.421875 -4.0625 C 79.234375 -2.800781 75.554688 -1.757812 71.390625 -0.9375 C 67.234375 -0.113281 63.316406 0.296875 59.640625 0.296875 C 50.835938 0.296875 43.144531 -1.175781 36.5625 -4.125 C 29.988281 -7.082031 24.5 -11.078125 20.09375 -16.109375 C 15.695312 -21.140625 12.410156 -26.773438 10.234375 -33.015625 C 8.054688 -39.253906 6.96875 -45.707031 6.96875 -52.375 C 6.96875 -59.050781 8.054688 -65.507812 10.234375 -71.75 C 12.410156 -77.988281 15.695312 -83.625 20.09375 -88.65625 C 24.5 -93.6875 29.988281 -97.675781 36.5625 -100.625 C 43.144531 -103.582031 50.835938 -105.0625 59.640625 -105.0625 C 67.179688 -105.0625 74 -103.707031 80.09375 -101 Z M 77.640625 -79.671875 "/></g></g></g><g fill="#3e5379" fill-opacity="1"><g transform="translate(575.413135, 265.401999)"><g><path d="M 49.484375 0 L 28.734375 0 L 28.734375 -83 L 2.90625 -83 L 2.90625 -103.609375 L 75.3125 -103.609375 L 75.3125 -83 L 49.484375 -83 Z M 49.484375 0 "/></g></g></g><g fill="#3e5379" fill-opacity="1"><g transform="translate(654.785937, 265.401999)"><g><path d="M 32.359375 0 L 11.609375 0 L 11.609375 -103.75 L 32.359375 -103.75 Z M 32.359375 0 "/></g></g></g><g fill="#3e5379" fill-opacity="1"><g transform="translate(698.898079, 265.401999)"><g><path d="M 61.53125 1.453125 C 52.625 1.453125 44.804688 -0.046875 38.078125 -3.046875 C 31.359375 -6.046875 25.773438 -10.082031 21.328125 -15.15625 C 16.878906 -20.238281 13.539062 -25.972656 11.3125 -32.359375 C 9.09375 -38.742188 7.984375 -45.296875 7.984375 -52.015625 C 7.984375 -58.742188 9.09375 -65.300781 11.3125 -71.6875 C 13.539062 -78.070312 16.878906 -83.800781 21.328125 -88.875 C 25.773438 -93.957031 31.359375 -98 38.078125 -101 C 44.804688 -104 52.625 -105.5 61.53125 -105.5 C 70.425781 -105.5 78.234375 -104 84.953125 -101 C 91.679688 -98 97.269531 -93.957031 101.71875 -88.875 C 106.164062 -83.800781 109.503906 -78.070312 111.734375 -71.6875 C 113.960938 -65.300781 115.078125 -58.742188 115.078125 -52.015625 C 115.078125 -45.296875 113.960938 -38.742188 111.734375 -32.359375 C 109.503906 -25.972656 106.164062 -20.238281 101.71875 -15.15625 C 97.269531 -10.082031 91.679688 -6.046875 84.953125 -3.046875 C 78.234375 -0.046875 70.425781 1.453125 61.53125 1.453125 Z M 61.53125 -20.03125 C 67.425781 -20.03125 72.5 -21.1875 76.75 -23.5 C 81.007812 -25.820312 84.394531 -28.894531 86.90625 -32.71875 C 89.425781 -36.539062 91.125 -40.722656 92 -45.265625 C 92.875 -49.816406 92.875 -54.363281 92 -58.90625 C 91.125 -63.457031 89.425781 -67.644531 86.90625 -71.46875 C 84.394531 -75.289062 81.007812 -78.359375 76.75 -80.671875 C 72.5 -82.992188 67.425781 -84.15625 61.53125 -84.15625 C 55.625 -84.15625 50.539062 -82.992188 46.28125 -80.671875 C 42.03125 -78.359375 38.644531 -75.289062 36.125 -71.46875 C 33.613281 -67.644531 31.921875 -63.457031 31.046875 -58.90625 C 30.179688 -54.363281 30.179688 -49.816406 31.046875 -45.265625 C 31.921875 -40.722656 33.613281 -36.539062 36.125 -32.71875 C 38.644531 -28.894531 42.03125 -25.820312 46.28125 -23.5 C 50.539062 -21.1875 55.625 -20.03125 61.53125 -20.03125 Z M 61.53125 -20.03125 "/></g></g></g><g fill="#3e5379" fill-opacity="1"><g transform="translate(821.80256, 265.401999)"><g><path d="M 32.359375 -56.453125 L 32.359375 0 L 11.609375 0 L 11.609375 -105.9375 L 17.125 -105.9375 L 69.5 -44.984375 L 69.5 -103.609375 L 90.40625 -103.609375 L 90.40625 2.171875 L 84.890625 2.171875 Z M 32.359375 -56.453125 "/></g></g></g><g fill="#3e5379" fill-opacity="1"><g transform="translate(0.359376, 421.796388)"><g><path d="M 77.640625 -79.671875 C 75.703125 -80.734375 73.351562 -81.742188 70.59375 -82.703125 C 67.832031 -83.671875 64.179688 -84.15625 59.640625 -84.15625 C 53.734375 -84.15625 48.703125 -83.019531 44.546875 -80.75 C 40.390625 -78.476562 37.050781 -75.457031 34.53125 -71.6875 C 32.019531 -67.914062 30.328125 -63.78125 29.453125 -59.28125 C 28.585938 -54.78125 28.585938 -50.28125 29.453125 -45.78125 C 30.328125 -41.28125 32.019531 -37.144531 34.53125 -33.375 C 37.050781 -29.601562 40.390625 -26.578125 44.546875 -24.296875 C 48.703125 -22.023438 53.734375 -20.890625 59.640625 -20.890625 C 64.179688 -20.890625 68.171875 -21.421875 71.609375 -22.484375 C 75.046875 -23.554688 77.734375 -24.578125 79.671875 -25.546875 L 82.421875 -4.0625 C 79.234375 -2.800781 75.554688 -1.757812 71.390625 -0.9375 C 67.234375 -0.113281 63.316406 0.296875 59.640625 0.296875 C 50.835938 0.296875 43.144531 -1.175781 36.5625 -4.125 C 29.988281 -7.082031 24.5 -11.078125 20.09375 -16.109375 C 15.695312 -21.140625 12.410156 -26.773438 10.234375 -33.015625 C 8.054688 -39.253906 6.96875 -45.707031 6.96875 -52.375 C 6.96875 -59.050781 8.054688 -65.507812 10.234375 -71.75 C 12.410156 -77.988281 15.695312 -83.625 20.09375 -88.65625 C 24.5 -93.6875 29.988281 -97.675781 36.5625 -100.625 C 43.144531 -103.582031 50.835938 -105.0625 59.640625 -105.0625 C 67.179688 -105.0625 74 -103.707031 80.09375 -101 Z M 77.640625 -79.671875 "/></g></g></g><g fill="#3e5379" fill-opacity="1"><g transform="translate(87.71299, 421.796388)"><g><path d="M 65.296875 0 L 11.609375 0 L 11.609375 -103.75 L 63.5625 -103.75 L 63.5625 -83 L 32.359375 -83 L 32.359375 -62.25 L 59.640625 -62.25 L 59.640625 -41.5 L 32.359375 -41.5 L 32.359375 -20.75 L 65.296875 -20.75 Z M 65.296875 0 "/></g></g></g><g fill="#3e5379" fill-opacity="1"><g transform="translate(160.846241, 421.796388)"><g><path d="M 32.359375 -56.453125 L 32.359375 0 L 11.609375 0 L 11.609375 -105.9375 L 17.125 -105.9375 L 69.5 -44.984375 L 69.5 -103.609375 L 90.40625 -103.609375 L 90.40625 2.171875 L 84.890625 2.171875 Z M 32.359375 -56.453125 "/></g></g></g><g fill="#3e5379" fill-opacity="1"><g transform="translate(263.000629, 421.796388)"><g><path d="M 49.484375 0 L 28.734375 0 L 28.734375 -83 L 2.90625 -83 L 2.90625 -103.609375 L 75.3125 -103.609375 L 75.3125 -83 L 49.484375 -83 Z M 49.484375 0 "/></g></g></g><g fill="#3e5379" fill-opacity="1"><g transform="translate(342.373431, 421.796388)"><g><path d="M 65.296875 0 L 11.609375 0 L 11.609375 -103.75 L 63.5625 -103.75 L 63.5625 -83 L 32.359375 -83 L 32.359375 -62.25 L 59.640625 -62.25 L 59.640625 -41.5 L 32.359375 -41.5 L 32.359375 -20.75 L 65.296875 -20.75 Z M 65.296875 0 "/></g></g></g><g fill="#3e5379" fill-opacity="1"><g transform="translate(415.506683, 421.796388)"><g><path d="M 63.265625 0 L 42.375 -39.609375 L 32.359375 -39.609375 L 32.359375 0 L 11.609375 0 L 11.609375 -103.75 L 52.53125 -103.75 C 58.71875 -103.75 63.960938 -102.46875 68.265625 -99.90625 C 72.578125 -97.34375 75.941406 -94.003906 78.359375 -89.890625 C 80.773438 -85.785156 82.273438 -81.335938 82.859375 -76.546875 C 83.441406 -71.753906 83.078125 -67.0625 81.765625 -62.46875 C 80.460938 -57.875 78.238281 -53.8125 75.09375 -50.28125 C 71.945312 -46.75 67.8125 -44.257812 62.6875 -42.8125 L 86.78125 0 Z M 32.359375 -59.78125 L 50.640625 -59.78125 C 53.441406 -59.78125 55.691406 -60.550781 57.390625 -62.09375 C 59.085938 -63.644531 60.222656 -65.582031 60.796875 -67.90625 C 61.378906 -70.226562 61.378906 -72.550781 60.796875 -74.875 C 60.222656 -77.195312 59.085938 -79.128906 57.390625 -80.671875 C 55.691406 -82.222656 53.441406 -83 50.640625 -83 L 32.359375 -83 Z M 32.359375 -59.78125 "/></g></g></g></g></g></svg>