<?xml version='1.0' encoding='utf-8'?>
<svg xmlns="http://www.w3.org/2000/svg" xmlns:xlink="http://www.w3.org/1999/xlink" width="2000" viewBox="0 0 1500 1499.999933" height="2000" preserveAspectRatio="xMidYMid meet"><defs><g/><clipPath id="252d8df923"><path d="M 178 559 L 514 559 L 514 935.941406 L 178 935.941406 Z M 178 559 " clip-rule="nonzero"/></clipPath></defs><rect x="-150" width="1800" fill="#ffffff" y="-149.999993" height="1799.99992" fill-opacity="1"/><rect x="-150" width="1800" fill="#3e5379" y="-149.999993" height="1799.99992" fill-opacity="1"/><g clip-path="url(#252d8df923)"><path fill="#ffffff" d="M 462.289062 910.273438 C 498.167969 886.460938 517.160156 854.367188 512.585938 810.074219 C 510.183594 786.90625 500.433594 767.851562 483.296875 752.410156 C 479.890625 749.351562 478.796875 747.128906 482.863281 743.542969 C 489.792969 737.421875 495.78125 730.414062 500.460938 722.328125 C 511.429688 703.363281 515 683.257812 512.707031 661.363281 C 509.988281 635.542969 498.078125 614.789062 479.621094 597.925781 C 452.792969 573.394531 419.78125 562.828125 384.132812 560.445312 C 338.261719 557.382812 295.800781 567.015625 257.71875 594.371094 C 229.390625 614.714844 207.679688 640.328125 193.859375 671.925781 C 180.957031 701.441406 175.914062 732.53125 179.019531 765.226562 C 182.832031 805.421875 197.566406 840.683594 223.839844 870.574219 C 261.726562 913.679688 309.964844 935.453125 370.027344 935.707031 C 401.238281 934.71875 433.570312 929.332031 462.289062 910.273438 Z M 282.175781 865.589844 C 257.195312 847.617188 239.398438 823.773438 229.195312 794.109375 C 217.25 759.402344 218.648438 725.328125 232.480469 692.019531 C 244.558594 662.953125 264.679688 640.253906 291.945312 623.851562 C 315.441406 609.71875 340.484375 602.441406 368.675781 603.851562 C 390.074219 602.457031 411.199219 606.957031 430.929688 616.664062 C 460.265625 631.117188 477.398438 657.207031 468.203125 690.59375 C 462.109375 712.710938 447.992188 724.429688 423.757812 726.875 C 407.988281 728.464844 392.910156 725.148438 378.761719 718.320312 C 364.402344 711.40625 349.863281 717.453125 341.863281 725.929688 C 333.070312 735.230469 331.269531 751.152344 337.199219 763.035156 C 344.28125 777.246094 365.871094 783.726562 380.003906 776.734375 C 398.3125 767.671875 417.605469 765.570312 437.335938 771.648438 C 464.929688 780.140625 478.269531 816.0625 466.175781 842.769531 C 453.648438 870.453125 429.609375 882.847656 401.835938 888.609375 C 359.015625 897.507812 318.21875 891.519531 282.175781 865.589844 Z M 282.175781 865.589844 " fill-opacity="1" fill-rule="nonzero"/></g><path fill="#ffffff" d="M 420.757812 842.273438 C 429.476562 837.082031 432.328125 826.714844 429.054688 816.542969 C 426.21875 807.71875 419.421875 803.515625 408.84375 803.171875 C 401.925781 802.949219 396.40625 806.382812 390.492188 808.859375 C 367.761719 818.371094 346.035156 815.429688 326.84375 801.058594 C 305.507812 785.078125 296.503906 763.125 300.707031 736.070312 C 305.253906 706.785156 331.75 683.585938 360.800781 681.742188 C 373.898438 680.914062 385.902344 683.839844 397.621094 689.511719 C 410.089844 695.542969 423.953125 691.945312 428.078125 681.5625 C 432.371094 670.800781 431.441406 657.476562 416.300781 650.292969 C 400.335938 642.699219 383.875 637.671875 365.992188 638.363281 C 362.75 638.363281 359.480469 638.167969 356.253906 638.421875 C 353.042969 638.664062 349.847656 639.246094 346.679688 639.847656 C 309.5 646.78125 282.582031 667.726562 266.40625 701.441406 C 253.230469 728.886719 252.046875 757.4375 263.316406 786.292969 C 276.460938 819.933594 300.617188 841.628906 334.453125 852.746094 C 351.015625 858.195312 368.183594 858.570312 385.363281 855.6875 C 398.039062 853.585938 409.835938 848.785156 420.757812 842.273438 Z M 420.757812 842.273438 " fill-opacity="1" fill-rule="nonzero"/><g fill="#ffffff" fill-opacity="1"><g transform="translate(565.688769, 638.249925)"><g><path d="M 33.046875 0 L 19.1875 0 L 19.1875 -55.4375 L 1.9375 -55.4375 L 1.9375 -69.203125 L 50.296875 -69.203125 L 50.296875 -55.4375 L 33.046875 -55.4375 Z M 33.046875 0 "/></g></g></g><g fill="#ffffff" fill-opacity="1"><g transform="translate(618.700784, 638.249925)"><g><path d="M 56.21875 0 L 42.359375 0 L 42.359375 -27.71875 L 21.609375 -27.71875 L 21.609375 0 L 7.75 0 L 7.75 -69.296875 L 21.609375 -69.296875 L 21.609375 -41.578125 L 42.359375 -41.578125 L 42.359375 -69.296875 L 56.21875 -69.296875 Z M 56.21875 0 "/></g></g></g><g fill="#ffffff" fill-opacity="1"><g transform="translate(682.761005, 638.249925)"><g><path d="M 43.609375 0 L 7.75 0 L 7.75 -69.296875 L 42.453125 -69.296875 L 42.453125 -55.4375 L 21.609375 -55.4375 L 21.609375 -41.578125 L 39.828125 -41.578125 L 39.828125 -27.71875 L 21.609375 -27.71875 L 21.609375 -13.859375 L 43.609375 -13.859375 Z M 43.609375 0 "/></g></g></g><g fill="#ffffff" fill-opacity="1"><g transform="translate(731.605712, 638.249925)"><g/></g></g><g fill="#ffffff" fill-opacity="1"><g transform="translate(759.129334, 638.249925)"><g><path d="M 28.984375 1.453125 L 0.578125 -69.296875 L 16.1875 -69.296875 L 30.140625 -33.921875 L 43.71875 -68.625 L 44.390625 -68.625 L 57.953125 -33.921875 L 71.921875 -69.296875 L 87.515625 -69.296875 L 59.21875 1.15625 L 56.703125 1.15625 L 44 -29.5625 L 31.40625 1.453125 Z M 28.984375 1.453125 "/></g></g></g><g fill="#ffffff" fill-opacity="1"><g transform="translate(847.32116, 638.249925)"><g><path d="M 51.859375 -53.203125 C 50.566406 -53.921875 49 -54.601562 47.15625 -55.25 C 45.3125 -55.894531 42.867188 -56.21875 39.828125 -56.21875 C 35.890625 -56.21875 32.53125 -55.457031 29.75 -53.9375 C 26.976562 -52.414062 24.75 -50.394531 23.0625 -47.875 C 21.382812 -45.351562 20.253906 -42.585938 19.671875 -39.578125 C 19.085938 -36.578125 19.085938 -33.578125 19.671875 -30.578125 C 20.253906 -27.578125 21.382812 -24.816406 23.0625 -22.296875 C 24.75 -19.773438 26.976562 -17.753906 29.75 -16.234375 C 32.53125 -14.710938 35.890625 -13.953125 39.828125 -13.953125 C 42.867188 -13.953125 45.535156 -14.304688 47.828125 -15.015625 C 50.117188 -15.734375 51.910156 -16.414062 53.203125 -17.0625 L 55.046875 -2.71875 C 52.921875 -1.875 50.46875 -1.175781 47.6875 -0.625 C 44.90625 -0.0820312 42.285156 0.1875 39.828125 0.1875 C 33.953125 0.1875 28.816406 -0.796875 24.421875 -2.765625 C 20.023438 -4.734375 16.359375 -7.394531 13.421875 -10.75 C 10.484375 -14.113281 8.285156 -17.878906 6.828125 -22.046875 C 5.378906 -26.210938 4.65625 -30.523438 4.65625 -34.984375 C 4.65625 -39.441406 5.378906 -43.753906 6.828125 -47.921875 C 8.285156 -52.085938 10.484375 -55.851562 13.421875 -59.21875 C 16.359375 -62.582031 20.023438 -65.25 24.421875 -67.21875 C 28.816406 -69.1875 33.953125 -70.171875 39.828125 -70.171875 C 44.867188 -70.171875 49.425781 -69.265625 53.5 -67.453125 Z M 51.859375 -53.203125 "/></g></g></g><g fill="#ffffff" fill-opacity="1"><g transform="translate(905.663455, 638.249925)"><g><path d="M 7.75 -69.296875 L 21.609375 -69.296875 L 21.609375 -13.859375 L 43.609375 -13.859375 L 43.609375 0 L 7.75 0 Z M 7.75 -69.296875 "/></g></g></g><g fill="#ffffff" fill-opacity="1"><g transform="translate(953.442122, 638.249925)"><g/></g></g><g fill="#ffffff" fill-opacity="1"><g transform="translate(980.96571, 638.249925)"><g><path d="M 51.859375 -53.203125 C 50.566406 -53.921875 49 -54.601562 47.15625 -55.25 C 45.3125 -55.894531 42.867188 -56.21875 39.828125 -56.21875 C 35.890625 -56.21875 32.53125 -55.457031 29.75 -53.9375 C 26.976562 -52.414062 24.75 -50.394531 23.0625 -47.875 C 21.382812 -45.351562 20.253906 -42.585938 19.671875 -39.578125 C 19.085938 -36.578125 19.085938 -33.578125 19.671875 -30.578125 C 20.253906 -27.578125 21.382812 -24.816406 23.0625 -22.296875 C 24.75 -19.773438 26.976562 -17.753906 29.75 -16.234375 C 32.53125 -14.710938 35.890625 -13.953125 39.828125 -13.953125 C 42.867188 -13.953125 45.535156 -14.304688 47.828125 -15.015625 C 50.117188 -15.734375 51.910156 -16.414062 53.203125 -17.0625 L 55.046875 -2.71875 C 52.921875 -1.875 50.46875 -1.175781 47.6875 -0.625 C 44.90625 -0.0820312 42.285156 0.1875 39.828125 0.1875 C 33.953125 0.1875 28.816406 -0.796875 24.421875 -2.765625 C 20.023438 -4.734375 16.359375 -7.394531 13.421875 -10.75 C 10.484375 -14.113281 8.285156 -17.878906 6.828125 -22.046875 C 5.378906 -26.210938 4.65625 -30.523438 4.65625 -34.984375 C 4.65625 -39.441406 5.378906 -43.753906 6.828125 -47.921875 C 8.285156 -52.085938 10.484375 -55.851562 13.421875 -59.21875 C 16.359375 -62.582031 20.023438 -65.25 24.421875 -67.21875 C 28.816406 -69.1875 33.953125 -70.171875 39.828125 -70.171875 C 44.867188 -70.171875 49.425781 -69.265625 53.5 -67.453125 Z M 51.859375 -53.203125 "/></g></g></g><g fill="#ffffff" fill-opacity="1"><g transform="translate(1039.308005, 638.249925)"><g><path d="M 7.75 -69.296875 L 21.609375 -69.296875 L 21.609375 -13.859375 L 43.609375 -13.859375 L 43.609375 0 L 7.75 0 Z M 7.75 -69.296875 "/></g></g></g><g fill="#ffffff" fill-opacity="1"><g transform="translate(1087.086672, 638.249925)"><g><path d="M 42.265625 0 L 28.296875 -26.453125 L 21.609375 -26.453125 L 21.609375 0 L 7.75 0 L 7.75 -69.296875 L 35.078125 -69.296875 C 39.210938 -69.296875 42.71875 -68.4375 45.59375 -66.71875 C 48.476562 -65.007812 50.726562 -62.78125 52.34375 -60.03125 C 53.957031 -57.289062 54.957031 -54.320312 55.34375 -51.125 C 55.726562 -47.925781 55.484375 -44.789062 54.609375 -41.71875 C 53.742188 -38.65625 52.257812 -35.941406 50.15625 -33.578125 C 48.050781 -31.222656 45.289062 -29.5625 41.875 -28.59375 L 57.953125 0 Z M 21.609375 -39.9375 L 33.828125 -39.9375 C 35.703125 -39.9375 37.203125 -40.453125 38.328125 -41.484375 C 39.460938 -42.515625 40.222656 -43.804688 40.609375 -45.359375 C 40.992188 -46.910156 40.992188 -48.460938 40.609375 -50.015625 C 40.222656 -51.566406 39.460938 -52.859375 38.328125 -53.890625 C 37.203125 -54.921875 35.703125 -55.4375 33.828125 -55.4375 L 21.609375 -55.4375 Z M 21.609375 -39.9375 "/></g></g></g><g fill="#ffffff" fill-opacity="1"><g transform="translate(565.688769, 773.249913)"><g><path d="M 51.859375 -53.203125 C 50.566406 -53.921875 49 -54.601562 47.15625 -55.25 C 45.3125 -55.894531 42.867188 -56.21875 39.828125 -56.21875 C 35.890625 -56.21875 32.53125 -55.457031 29.75 -53.9375 C 26.976562 -52.414062 24.75 -50.394531 23.0625 -47.875 C 21.382812 -45.351562 20.253906 -42.585938 19.671875 -39.578125 C 19.085938 -36.578125 19.085938 -33.578125 19.671875 -30.578125 C 20.253906 -27.578125 21.382812 -24.816406 23.0625 -22.296875 C 24.75 -19.773438 26.976562 -17.753906 29.75 -16.234375 C 32.53125 -14.710938 35.890625 -13.953125 39.828125 -13.953125 C 42.867188 -13.953125 45.535156 -14.304688 47.828125 -15.015625 C 50.117188 -15.734375 51.910156 -16.414062 53.203125 -17.0625 L 55.046875 -2.71875 C 52.921875 -1.875 50.46875 -1.175781 47.6875 -0.625 C 44.90625 -0.0820312 42.285156 0.1875 39.828125 0.1875 C 33.953125 0.1875 28.816406 -0.796875 24.421875 -2.765625 C 20.023438 -4.734375 16.359375 -7.394531 13.421875 -10.75 C 10.484375 -14.113281 8.285156 -17.878906 6.828125 -22.046875 C 5.378906 -26.210938 4.65625 -30.523438 4.65625 -34.984375 C 4.65625 -39.441406 5.378906 -43.753906 6.828125 -47.921875 C 8.285156 -52.085938 10.484375 -55.851562 13.421875 -59.21875 C 16.359375 -62.582031 20.023438 -65.25 24.421875 -67.21875 C 28.816406 -69.1875 33.953125 -70.171875 39.828125 -70.171875 C 44.867188 -70.171875 49.425781 -69.265625 53.5 -67.453125 Z M 51.859375 -53.203125 "/></g></g></g><g fill="#ffffff" fill-opacity="1"><g transform="translate(624.031064, 773.249913)"><g><path d="M 41.09375 0.96875 C 35.144531 0.96875 29.925781 -0.03125 25.4375 -2.03125 C 20.945312 -4.039062 17.21875 -6.738281 14.25 -10.125 C 11.28125 -13.519531 9.050781 -17.347656 7.5625 -21.609375 C 6.070312 -25.878906 5.328125 -30.257812 5.328125 -34.75 C 5.328125 -39.238281 6.070312 -43.613281 7.5625 -47.875 C 9.050781 -52.144531 11.28125 -55.972656 14.25 -59.359375 C 17.21875 -62.753906 20.945312 -65.453125 25.4375 -67.453125 C 29.925781 -69.460938 35.144531 -70.46875 41.09375 -70.46875 C 47.039062 -70.46875 52.257812 -69.460938 56.75 -67.453125 C 61.238281 -65.453125 64.96875 -62.753906 67.9375 -59.359375 C 70.914062 -55.972656 73.144531 -52.144531 74.625 -47.875 C 76.113281 -43.613281 76.859375 -39.238281 76.859375 -34.75 C 76.859375 -30.257812 76.113281 -25.878906 74.625 -21.609375 C 73.144531 -17.347656 70.914062 -13.519531 67.9375 -10.125 C 64.96875 -6.738281 61.238281 -4.039062 56.75 -2.03125 C 52.257812 -0.03125 47.039062 0.96875 41.09375 0.96875 Z M 41.09375 -13.375 C 45.03125 -13.375 48.421875 -14.148438 51.265625 -15.703125 C 54.109375 -17.253906 56.367188 -19.304688 58.046875 -21.859375 C 59.734375 -24.410156 60.867188 -27.203125 61.453125 -30.234375 C 62.035156 -33.273438 62.035156 -36.3125 61.453125 -39.34375 C 60.867188 -42.382812 59.734375 -45.179688 58.046875 -47.734375 C 56.367188 -50.285156 54.109375 -52.335938 51.265625 -53.890625 C 48.421875 -55.441406 45.03125 -56.21875 41.09375 -56.21875 C 37.15625 -56.21875 33.765625 -55.441406 30.921875 -53.890625 C 28.078125 -52.335938 25.8125 -50.285156 24.125 -47.734375 C 22.445312 -45.179688 21.316406 -42.382812 20.734375 -39.34375 C 20.160156 -36.3125 20.160156 -33.273438 20.734375 -30.234375 C 21.316406 -27.203125 22.445312 -24.410156 24.125 -21.859375 C 25.8125 -19.304688 28.078125 -17.253906 30.921875 -15.703125 C 33.765625 -14.148438 37.15625 -13.375 41.09375 -13.375 Z M 41.09375 -13.375 "/></g></g></g><g fill="#ffffff" fill-opacity="1"><g transform="translate(706.117308, 773.249913)"><g><path d="M 21.609375 -37.703125 L 21.609375 0 L 7.75 0 L 7.75 -70.75 L 11.4375 -70.75 L 46.421875 -30.046875 L 46.421875 -69.203125 L 60.375 -69.203125 L 60.375 1.453125 L 56.703125 1.453125 Z M 21.609375 -37.703125 "/></g></g></g><g fill="#ffffff" fill-opacity="1"><g transform="translate(774.344848, 773.249913)"><g><path d="M 21.609375 -37.703125 L 21.609375 0 L 7.75 0 L 7.75 -70.75 L 11.4375 -70.75 L 46.421875 -30.046875 L 46.421875 -69.203125 L 60.375 -69.203125 L 60.375 1.453125 L 56.703125 1.453125 Z M 21.609375 -37.703125 "/></g></g></g><g fill="#ffffff" fill-opacity="1"><g transform="translate(842.572366, 773.249913)"><g><path d="M 43.609375 0 L 7.75 0 L 7.75 -69.296875 L 42.453125 -69.296875 L 42.453125 -55.4375 L 21.609375 -55.4375 L 21.609375 -41.578125 L 39.828125 -41.578125 L 39.828125 -27.71875 L 21.609375 -27.71875 L 21.609375 -13.859375 L 43.609375 -13.859375 Z M 43.609375 0 "/></g></g></g><g fill="#ffffff" fill-opacity="1"><g transform="translate(891.417074, 773.249913)"><g><path d="M 51.859375 -53.203125 C 50.566406 -53.921875 49 -54.601562 47.15625 -55.25 C 45.3125 -55.894531 42.867188 -56.21875 39.828125 -56.21875 C 35.890625 -56.21875 32.53125 -55.457031 29.75 -53.9375 C 26.976562 -52.414062 24.75 -50.394531 23.0625 -47.875 C 21.382812 -45.351562 20.253906 -42.585938 19.671875 -39.578125 C 19.085938 -36.578125 19.085938 -33.578125 19.671875 -30.578125 C 20.253906 -27.578125 21.382812 -24.816406 23.0625 -22.296875 C 24.75 -19.773438 26.976562 -17.753906 29.75 -16.234375 C 32.53125 -14.710938 35.890625 -13.953125 39.828125 -13.953125 C 42.867188 -13.953125 45.535156 -14.304688 47.828125 -15.015625 C 50.117188 -15.734375 51.910156 -16.414062 53.203125 -17.0625 L 55.046875 -2.71875 C 52.921875 -1.875 50.46875 -1.175781 47.6875 -0.625 C 44.90625 -0.0820312 42.285156 0.1875 39.828125 0.1875 C 33.953125 0.1875 28.816406 -0.796875 24.421875 -2.765625 C 20.023438 -4.734375 16.359375 -7.394531 13.421875 -10.75 C 10.484375 -14.113281 8.285156 -17.878906 6.828125 -22.046875 C 5.378906 -26.210938 4.65625 -30.523438 4.65625 -34.984375 C 4.65625 -39.441406 5.378906 -43.753906 6.828125 -47.921875 C 8.285156 -52.085938 10.484375 -55.851562 13.421875 -59.21875 C 16.359375 -62.582031 20.023438 -65.25 24.421875 -67.21875 C 28.816406 -69.1875 33.953125 -70.171875 39.828125 -70.171875 C 44.867188 -70.171875 49.425781 -69.265625 53.5 -67.453125 Z M 51.859375 -53.203125 "/></g></g></g><g fill="#ffffff" fill-opacity="1"><g transform="translate(949.759369, 773.249913)"><g><path d="M 33.046875 0 L 19.1875 0 L 19.1875 -55.4375 L 1.9375 -55.4375 L 1.9375 -69.203125 L 50.296875 -69.203125 L 50.296875 -55.4375 L 33.046875 -55.4375 Z M 33.046875 0 "/></g></g></g><g fill="#ffffff" fill-opacity="1"><g transform="translate(1002.771373, 773.249913)"><g><path d="M 21.609375 0 L 7.75 0 L 7.75 -69.296875 L 21.609375 -69.296875 Z M 21.609375 0 "/></g></g></g><g fill="#ffffff" fill-opacity="1"><g transform="translate(1032.233269, 773.249913)"><g><path d="M 41.09375 0.96875 C 35.144531 0.96875 29.925781 -0.03125 25.4375 -2.03125 C 20.945312 -4.039062 17.21875 -6.738281 14.25 -10.125 C 11.28125 -13.519531 9.050781 -17.347656 7.5625 -21.609375 C 6.070312 -25.878906 5.328125 -30.257812 5.328125 -34.75 C 5.328125 -39.238281 6.070312 -43.613281 7.5625 -47.875 C 9.050781 -52.144531 11.28125 -55.972656 14.25 -59.359375 C 17.21875 -62.753906 20.945312 -65.453125 25.4375 -67.453125 C 29.925781 -69.460938 35.144531 -70.46875 41.09375 -70.46875 C 47.039062 -70.46875 52.257812 -69.460938 56.75 -67.453125 C 61.238281 -65.453125 64.96875 -62.753906 67.9375 -59.359375 C 70.914062 -55.972656 73.144531 -52.144531 74.625 -47.875 C 76.113281 -43.613281 76.859375 -39.238281 76.859375 -34.75 C 76.859375 -30.257812 76.113281 -25.878906 74.625 -21.609375 C 73.144531 -17.347656 70.914062 -13.519531 67.9375 -10.125 C 64.96875 -6.738281 61.238281 -4.039062 56.75 -2.03125 C 52.257812 -0.03125 47.039062 0.96875 41.09375 0.96875 Z M 41.09375 -13.375 C 45.03125 -13.375 48.421875 -14.148438 51.265625 -15.703125 C 54.109375 -17.253906 56.367188 -19.304688 58.046875 -21.859375 C 59.734375 -24.410156 60.867188 -27.203125 61.453125 -30.234375 C 62.035156 -33.273438 62.035156 -36.3125 61.453125 -39.34375 C 60.867188 -42.382812 59.734375 -45.179688 58.046875 -47.734375 C 56.367188 -50.285156 54.109375 -52.335938 51.265625 -53.890625 C 48.421875 -55.441406 45.03125 -56.21875 41.09375 -56.21875 C 37.15625 -56.21875 33.765625 -55.441406 30.921875 -53.890625 C 28.078125 -52.335938 25.8125 -50.285156 24.125 -47.734375 C 22.445312 -45.179688 21.316406 -42.382812 20.734375 -39.34375 C 20.160156 -36.3125 20.160156 -33.273438 20.734375 -30.234375 C 21.316406 -27.203125 22.445312 -24.410156 24.125 -21.859375 C 25.8125 -19.304688 28.078125 -17.253906 30.921875 -15.703125 C 33.765625 -14.148438 37.15625 -13.375 41.09375 -13.375 Z M 41.09375 -13.375 "/></g></g></g><g fill="#ffffff" fill-opacity="1"><g transform="translate(1114.31949, 773.249913)"><g><path d="M 21.609375 -37.703125 L 21.609375 0 L 7.75 0 L 7.75 -70.75 L 11.4375 -70.75 L 46.421875 -30.046875 L 46.421875 -69.203125 L 60.375 -69.203125 L 60.375 1.453125 L 56.703125 1.453125 Z M 21.609375 -37.703125 "/></g></g></g><g fill="#ffffff" fill-opacity="1"><g transform="translate(565.688769, 908.249902)"><g><path d="M 51.859375 -53.203125 C 50.566406 -53.921875 49 -54.601562 47.15625 -55.25 C 45.3125 -55.894531 42.867188 -56.21875 39.828125 -56.21875 C 35.890625 -56.21875 32.53125 -55.457031 29.75 -53.9375 C 26.976562 -52.414062 24.75 -50.394531 23.0625 -47.875 C 21.382812 -45.351562 20.253906 -42.585938 19.671875 -39.578125 C 19.085938 -36.578125 19.085938 -33.578125 19.671875 -30.578125 C 20.253906 -27.578125 21.382812 -24.816406 23.0625 -22.296875 C 24.75 -19.773438 26.976562 -17.753906 29.75 -16.234375 C 32.53125 -14.710938 35.890625 -13.953125 39.828125 -13.953125 C 42.867188 -13.953125 45.535156 -14.304688 47.828125 -15.015625 C 50.117188 -15.734375 51.910156 -16.414062 53.203125 -17.0625 L 55.046875 -2.71875 C 52.921875 -1.875 50.46875 -1.175781 47.6875 -0.625 C 44.90625 -0.0820312 42.285156 0.1875 39.828125 0.1875 C 33.953125 0.1875 28.816406 -0.796875 24.421875 -2.765625 C 20.023438 -4.734375 16.359375 -7.394531 13.421875 -10.75 C 10.484375 -14.113281 8.285156 -17.878906 6.828125 -22.046875 C 5.378906 -26.210938 4.65625 -30.523438 4.65625 -34.984375 C 4.65625 -39.441406 5.378906 -43.753906 6.828125 -47.921875 C 8.285156 -52.085938 10.484375 -55.851562 13.421875 -59.21875 C 16.359375 -62.582031 20.023438 -65.25 24.421875 -67.21875 C 28.816406 -69.1875 33.953125 -70.171875 39.828125 -70.171875 C 44.867188 -70.171875 49.425781 -69.265625 53.5 -67.453125 Z M 51.859375 -53.203125 "/></g></g></g><g fill="#ffffff" fill-opacity="1"><g transform="translate(624.031064, 908.249902)"><g><path d="M 43.609375 0 L 7.75 0 L 7.75 -69.296875 L 42.453125 -69.296875 L 42.453125 -55.4375 L 21.609375 -55.4375 L 21.609375 -41.578125 L 39.828125 -41.578125 L 39.828125 -27.71875 L 21.609375 -27.71875 L 21.609375 -13.859375 L 43.609375 -13.859375 Z M 43.609375 0 "/></g></g></g><g fill="#ffffff" fill-opacity="1"><g transform="translate(672.875771, 908.249902)"><g><path d="M 21.609375 -37.703125 L 21.609375 0 L 7.75 0 L 7.75 -70.75 L 11.4375 -70.75 L 46.421875 -30.046875 L 46.421875 -69.203125 L 60.375 -69.203125 L 60.375 1.453125 L 56.703125 1.453125 Z M 21.609375 -37.703125 "/></g></g></g><g fill="#ffffff" fill-opacity="1"><g transform="translate(741.103301, 908.249902)"><g><path d="M 33.046875 0 L 19.1875 0 L 19.1875 -55.4375 L 1.9375 -55.4375 L 1.9375 -69.203125 L 50.296875 -69.203125 L 50.296875 -55.4375 L 33.046875 -55.4375 Z M 33.046875 0 "/></g></g></g><g fill="#ffffff" fill-opacity="1"><g transform="translate(794.115316, 908.249902)"><g><path d="M 43.609375 0 L 7.75 0 L 7.75 -69.296875 L 42.453125 -69.296875 L 42.453125 -55.4375 L 21.609375 -55.4375 L 21.609375 -41.578125 L 39.828125 -41.578125 L 39.828125 -27.71875 L 21.609375 -27.71875 L 21.609375 -13.859375 L 43.609375 -13.859375 Z M 43.609375 0 "/></g></g></g><g fill="#ffffff" fill-opacity="1"><g transform="translate(842.960023, 908.249902)"><g><path d="M 42.265625 0 L 28.296875 -26.453125 L 21.609375 -26.453125 L 21.609375 0 L 7.75 0 L 7.75 -69.296875 L 35.078125 -69.296875 C 39.210938 -69.296875 42.71875 -68.4375 45.59375 -66.71875 C 48.476562 -65.007812 50.726562 -62.78125 52.34375 -60.03125 C 53.957031 -57.289062 54.957031 -54.320312 55.34375 -51.125 C 55.726562 -47.925781 55.484375 -44.789062 54.609375 -41.71875 C 53.742188 -38.65625 52.257812 -35.941406 50.15625 -33.578125 C 48.050781 -31.222656 45.289062 -29.5625 41.875 -28.59375 L 57.953125 0 Z M 21.609375 -39.9375 L 33.828125 -39.9375 C 35.703125 -39.9375 37.203125 -40.453125 38.328125 -41.484375 C 39.460938 -42.515625 40.222656 -43.804688 40.609375 -45.359375 C 40.992188 -46.910156 40.992188 -48.460938 40.609375 -50.015625 C 40.222656 -51.566406 39.460938 -52.859375 38.328125 -53.890625 C 37.203125 -54.921875 35.703125 -55.4375 33.828125 -55.4375 L 21.609375 -55.4375 Z M 21.609375 -39.9375 "/></g></g></g></svg>