<svg xmlns="http://www.w3.org/2000/svg" xmlns:xlink="http://www.w3.org/1999/xlink" width="2000" zoomAndPan="magnify" viewBox="0 0 1500 1499.999933" height="2000" preserveAspectRatio="xMidYMid meet" version="1.0"><defs><g/><clipPath id="a33a94905f"><path d="M 464 377 L 997 377 L 997 972.902344 L 464 972.902344 Z M 464 377 " clip-rule="nonzero"/></clipPath></defs><rect x="-150" width="1800" fill="#ffffff" y="-149.999993" height="1799.99992" fill-opacity="1"/><rect x="-150" width="1800" fill="#3e5379" y="-149.999993" height="1799.99992" fill-opacity="1"/><g clip-path="url(#a33a94905f)"><path fill="#ffffff" d="M 915.28125 932.484375 C 972.136719 894.746094 1002.242188 843.878906 994.988281 773.683594 C 991.183594 736.964844 975.726562 706.765625 948.570312 682.296875 C 943.171875 677.445312 941.4375 673.925781 947.882812 668.242188 C 958.867188 658.542969 968.355469 647.4375 975.777344 634.617188 C 993.160156 604.5625 998.816406 572.695312 995.179688 538.003906 C 990.875 497.078125 971.996094 464.191406 942.746094 437.460938 C 900.226562 398.582031 847.914062 381.839844 791.410156 378.058594 C 718.71875 373.207031 651.421875 388.476562 591.066406 431.824219 C 546.171875 464.070312 511.761719 504.664062 489.863281 554.742188 C 469.410156 601.519531 461.421875 650.789062 466.34375 702.605469 C 472.382812 766.3125 495.734375 822.191406 537.375 869.5625 C 597.417969 937.882812 673.867188 972.386719 769.058594 972.789062 C 818.519531 971.21875 869.765625 962.683594 915.28125 932.484375 Z M 629.828125 861.667969 C 590.234375 833.179688 562.03125 795.394531 545.863281 748.382812 C 526.933594 693.378906 529.144531 639.375 551.070312 586.582031 C 570.214844 540.523438 602.101562 504.542969 645.308594 478.554688 C 682.546875 456.152344 722.238281 444.621094 766.917969 446.855469 C 800.828125 444.644531 834.308594 451.777344 865.582031 467.164062 C 912.070312 490.0625 939.226562 531.414062 924.648438 584.324219 C 914.996094 619.375 892.617188 637.949219 854.214844 641.824219 C 829.222656 644.34375 805.324219 639.089844 782.898438 628.269531 C 760.140625 617.308594 737.097656 626.890625 724.425781 640.324219 C 710.488281 655.070312 707.636719 680.300781 717.027344 699.132812 C 728.253906 721.652344 762.472656 731.925781 784.871094 720.84375 C 813.882812 706.480469 844.464844 703.152344 875.734375 712.78125 C 919.464844 726.242188 940.605469 783.171875 921.4375 825.5 C 901.582031 869.371094 863.488281 889.015625 819.472656 898.144531 C 751.605469 912.246094 686.949219 902.757812 629.828125 861.667969 Z M 629.828125 861.667969 " fill-opacity="1" fill-rule="nonzero"/></g><path fill="#ffffff" d="M 849.457031 824.714844 C 863.273438 816.484375 867.792969 800.054688 862.609375 783.929688 C 858.113281 769.949219 847.339844 763.289062 830.578125 762.742188 C 819.613281 762.386719 810.863281 767.832031 801.496094 771.757812 C 765.46875 786.832031 731.035156 782.171875 700.621094 759.390625 C 666.804688 734.066406 652.539062 699.277344 659.195312 656.402344 C 666.402344 609.984375 708.398438 573.21875 754.433594 570.292969 C 775.195312 568.988281 794.21875 573.625 812.789062 582.613281 C 832.550781 592.171875 854.523438 586.464844 861.0625 570.007812 C 867.863281 552.960938 866.390625 531.84375 842.394531 520.453125 C 817.09375 508.421875 791.007812 500.453125 762.660156 501.546875 C 757.527344 501.546875 752.339844 501.238281 747.230469 501.644531 C 742.140625 502.023438 737.074219 502.949219 732.058594 503.902344 C 673.132812 514.886719 630.472656 548.085938 604.835938 601.519531 C 583.957031 645.011719 582.078125 690.261719 599.9375 735.992188 C 620.769531 789.304688 659.054688 823.691406 712.675781 841.3125 C 738.929688 849.945312 766.132812 850.539062 793.363281 845.972656 C 813.457031 842.644531 832.144531 835.035156 849.457031 824.714844 Z M 849.457031 824.714844 " fill-opacity="1" fill-rule="nonzero"/><g fill="#ffffff" fill-opacity="1"><g transform="translate(189.071971, 1092.537774)"><g><path d="M 51.859375 -53.203125 C 50.566406 -53.921875 49 -54.601562 47.15625 -55.25 C 45.3125 -55.894531 42.867188 -56.21875 39.828125 -56.21875 C 35.890625 -56.21875 32.53125 -55.457031 29.75 -53.9375 C 26.976562 -52.414062 24.75 -50.394531 23.0625 -47.875 C 21.382812 -45.351562 20.253906 -42.585938 19.671875 -39.578125 C 19.085938 -36.578125 19.085938 -33.578125 19.671875 -30.578125 C 20.253906 -27.578125 21.382812 -24.816406 23.0625 -22.296875 C 24.75 -19.773438 26.976562 -17.753906 29.75 -16.234375 C 32.53125 -14.710938 35.890625 -13.953125 39.828125 -13.953125 C 42.867188 -13.953125 45.535156 -14.304688 47.828125 -15.015625 C 50.117188 -15.734375 51.910156 -16.414062 53.203125 -17.0625 L 55.046875 -2.71875 C 52.921875 -1.875 50.46875 -1.175781 47.6875 -0.625 C 44.90625 -0.0820312 42.285156 0.1875 39.828125 0.1875 C 33.953125 0.1875 28.816406 -0.796875 24.421875 -2.765625 C 20.023438 -4.734375 16.359375 -7.394531 13.421875 -10.75 C 10.484375 -14.113281 8.285156 -17.878906 6.828125 -22.046875 C 5.378906 -26.210938 4.65625 -30.523438 4.65625 -34.984375 C 4.65625 -39.441406 5.378906 -43.753906 6.828125 -47.921875 C 8.285156 -52.085938 10.484375 -55.851562 13.421875 -59.21875 C 16.359375 -62.582031 20.023438 -65.25 24.421875 -67.21875 C 28.816406 -69.1875 33.953125 -70.171875 39.828125 -70.171875 C 44.867188 -70.171875 49.425781 -69.265625 53.5 -67.453125 Z M 51.859375 -53.203125 "/></g></g></g><g fill="#ffffff" fill-opacity="1"><g transform="translate(247.414266, 1092.537774)"><g><path d="M 7.75 -69.296875 L 21.609375 -69.296875 L 21.609375 -13.859375 L 43.609375 -13.859375 L 43.609375 0 L 7.75 0 Z M 7.75 -69.296875 "/></g></g></g><g fill="#ffffff" fill-opacity="1"><g transform="translate(295.192922, 1092.537774)"><g><path d="M 42.265625 0 L 28.296875 -26.453125 L 21.609375 -26.453125 L 21.609375 0 L 7.75 0 L 7.75 -69.296875 L 35.078125 -69.296875 C 39.210938 -69.296875 42.71875 -68.4375 45.59375 -66.71875 C 48.476562 -65.007812 50.726562 -62.78125 52.34375 -60.03125 C 53.957031 -57.289062 54.957031 -54.320312 55.34375 -51.125 C 55.726562 -47.925781 55.484375 -44.789062 54.609375 -41.71875 C 53.742188 -38.65625 52.257812 -35.941406 50.15625 -33.578125 C 48.050781 -31.222656 45.289062 -29.5625 41.875 -28.59375 L 57.953125 0 Z M 21.609375 -39.9375 L 33.828125 -39.9375 C 35.703125 -39.9375 37.203125 -40.453125 38.328125 -41.484375 C 39.460938 -42.515625 40.222656 -43.804688 40.609375 -45.359375 C 40.992188 -46.910156 40.992188 -48.460938 40.609375 -50.015625 C 40.222656 -51.566406 39.460938 -52.859375 38.328125 -53.890625 C 37.203125 -54.921875 35.703125 -55.4375 33.828125 -55.4375 L 21.609375 -55.4375 Z M 21.609375 -39.9375 "/></g></g></g><g fill="#ffffff" fill-opacity="1"><g transform="translate(354.601269, 1092.537774)"><g/></g></g><g fill="#ffffff" fill-opacity="1"><g transform="translate(382.12488, 1092.537774)"><g><path d="M 51.859375 -53.203125 C 50.566406 -53.921875 49 -54.601562 47.15625 -55.25 C 45.3125 -55.894531 42.867188 -56.21875 39.828125 -56.21875 C 35.890625 -56.21875 32.53125 -55.457031 29.75 -53.9375 C 26.976562 -52.414062 24.75 -50.394531 23.0625 -47.875 C 21.382812 -45.351562 20.253906 -42.585938 19.671875 -39.578125 C 19.085938 -36.578125 19.085938 -33.578125 19.671875 -30.578125 C 20.253906 -27.578125 21.382812 -24.816406 23.0625 -22.296875 C 24.75 -19.773438 26.976562 -17.753906 29.75 -16.234375 C 32.53125 -14.710938 35.890625 -13.953125 39.828125 -13.953125 C 42.867188 -13.953125 45.535156 -14.304688 47.828125 -15.015625 C 50.117188 -15.734375 51.910156 -16.414062 53.203125 -17.0625 L 55.046875 -2.71875 C 52.921875 -1.875 50.46875 -1.175781 47.6875 -0.625 C 44.90625 -0.0820312 42.285156 0.1875 39.828125 0.1875 C 33.953125 0.1875 28.816406 -0.796875 24.421875 -2.765625 C 20.023438 -4.734375 16.359375 -7.394531 13.421875 -10.75 C 10.484375 -14.113281 8.285156 -17.878906 6.828125 -22.046875 C 5.378906 -26.210938 4.65625 -30.523438 4.65625 -34.984375 C 4.65625 -39.441406 5.378906 -43.753906 6.828125 -47.921875 C 8.285156 -52.085938 10.484375 -55.851562 13.421875 -59.21875 C 16.359375 -62.582031 20.023438 -65.25 24.421875 -67.21875 C 28.816406 -69.1875 33.953125 -70.171875 39.828125 -70.171875 C 44.867188 -70.171875 49.425781 -69.265625 53.5 -67.453125 Z M 51.859375 -53.203125 "/></g></g></g><g fill="#ffffff" fill-opacity="1"><g transform="translate(440.467175, 1092.537774)"><g><path d="M 41.09375 0.96875 C 35.144531 0.96875 29.925781 -0.03125 25.4375 -2.03125 C 20.945312 -4.039062 17.21875 -6.738281 14.25 -10.125 C 11.28125 -13.519531 9.050781 -17.347656 7.5625 -21.609375 C 6.070312 -25.878906 5.328125 -30.257812 5.328125 -34.75 C 5.328125 -39.238281 6.070312 -43.613281 7.5625 -47.875 C 9.050781 -52.144531 11.28125 -55.972656 14.25 -59.359375 C 17.21875 -62.753906 20.945312 -65.453125 25.4375 -67.453125 C 29.925781 -69.460938 35.144531 -70.46875 41.09375 -70.46875 C 47.039062 -70.46875 52.257812 -69.460938 56.75 -67.453125 C 61.238281 -65.453125 64.96875 -62.753906 67.9375 -59.359375 C 70.914062 -55.972656 73.144531 -52.144531 74.625 -47.875 C 76.113281 -43.613281 76.859375 -39.238281 76.859375 -34.75 C 76.859375 -30.257812 76.113281 -25.878906 74.625 -21.609375 C 73.144531 -17.347656 70.914062 -13.519531 67.9375 -10.125 C 64.96875 -6.738281 61.238281 -4.039062 56.75 -2.03125 C 52.257812 -0.03125 47.039062 0.96875 41.09375 0.96875 Z M 41.09375 -13.375 C 45.03125 -13.375 48.421875 -14.148438 51.265625 -15.703125 C 54.109375 -17.253906 56.367188 -19.304688 58.046875 -21.859375 C 59.734375 -24.410156 60.867188 -27.203125 61.453125 -30.234375 C 62.035156 -33.273438 62.035156 -36.3125 61.453125 -39.34375 C 60.867188 -42.382812 59.734375 -45.179688 58.046875 -47.734375 C 56.367188 -50.285156 54.109375 -52.335938 51.265625 -53.890625 C 48.421875 -55.441406 45.03125 -56.21875 41.09375 -56.21875 C 37.15625 -56.21875 33.765625 -55.441406 30.921875 -53.890625 C 28.078125 -52.335938 25.8125 -50.285156 24.125 -47.734375 C 22.445312 -45.179688 21.316406 -42.382812 20.734375 -39.34375 C 20.160156 -36.3125 20.160156 -33.273438 20.734375 -30.234375 C 21.316406 -27.203125 22.445312 -24.410156 24.125 -21.859375 C 25.8125 -19.304688 28.078125 -17.253906 30.921875 -15.703125 C 33.765625 -14.148438 37.15625 -13.375 41.09375 -13.375 Z M 41.09375 -13.375 "/></g></g></g><g fill="#ffffff" fill-opacity="1"><g transform="translate(522.553419, 1092.537774)"><g><path d="M 21.609375 -37.703125 L 21.609375 0 L 7.75 0 L 7.75 -70.75 L 11.4375 -70.75 L 46.421875 -30.046875 L 46.421875 -69.203125 L 60.375 -69.203125 L 60.375 1.453125 L 56.703125 1.453125 Z M 21.609375 -37.703125 "/></g></g></g><g fill="#ffffff" fill-opacity="1"><g transform="translate(590.780937, 1092.537774)"><g><path d="M 21.609375 -37.703125 L 21.609375 0 L 7.75 0 L 7.75 -70.75 L 11.4375 -70.75 L 46.421875 -30.046875 L 46.421875 -69.203125 L 60.375 -69.203125 L 60.375 1.453125 L 56.703125 1.453125 Z M 21.609375 -37.703125 "/></g></g></g><g fill="#ffffff" fill-opacity="1"><g transform="translate(659.008455, 1092.537774)"><g><path d="M 43.609375 0 L 7.75 0 L 7.75 -69.296875 L 42.453125 -69.296875 L 42.453125 -55.4375 L 21.609375 -55.4375 L 21.609375 -41.578125 L 39.828125 -41.578125 L 39.828125 -27.71875 L 21.609375 -27.71875 L 21.609375 -13.859375 L 43.609375 -13.859375 Z M 43.609375 0 "/></g></g></g><g fill="#ffffff" fill-opacity="1"><g transform="translate(707.853208, 1092.537774)"><g><path d="M 51.859375 -53.203125 C 50.566406 -53.921875 49 -54.601562 47.15625 -55.25 C 45.3125 -55.894531 42.867188 -56.21875 39.828125 -56.21875 C 35.890625 -56.21875 32.53125 -55.457031 29.75 -53.9375 C 26.976562 -52.414062 24.75 -50.394531 23.0625 -47.875 C 21.382812 -45.351562 20.253906 -42.585938 19.671875 -39.578125 C 19.085938 -36.578125 19.085938 -33.578125 19.671875 -30.578125 C 20.253906 -27.578125 21.382812 -24.816406 23.0625 -22.296875 C 24.75 -19.773438 26.976562 -17.753906 29.75 -16.234375 C 32.53125 -14.710938 35.890625 -13.953125 39.828125 -13.953125 C 42.867188 -13.953125 45.535156 -14.304688 47.828125 -15.015625 C 50.117188 -15.734375 51.910156 -16.414062 53.203125 -17.0625 L 55.046875 -2.71875 C 52.921875 -1.875 50.46875 -1.175781 47.6875 -0.625 C 44.90625 -0.0820312 42.285156 0.1875 39.828125 0.1875 C 33.953125 0.1875 28.816406 -0.796875 24.421875 -2.765625 C 20.023438 -4.734375 16.359375 -7.394531 13.421875 -10.75 C 10.484375 -14.113281 8.285156 -17.878906 6.828125 -22.046875 C 5.378906 -26.210938 4.65625 -30.523438 4.65625 -34.984375 C 4.65625 -39.441406 5.378906 -43.753906 6.828125 -47.921875 C 8.285156 -52.085938 10.484375 -55.851562 13.421875 -59.21875 C 16.359375 -62.582031 20.023438 -65.25 24.421875 -67.21875 C 28.816406 -69.1875 33.953125 -70.171875 39.828125 -70.171875 C 44.867188 -70.171875 49.425781 -69.265625 53.5 -67.453125 Z M 51.859375 -53.203125 "/></g></g></g><g fill="#ffffff" fill-opacity="1"><g transform="translate(766.195458, 1092.537774)"><g><path d="M 33.046875 0 L 19.1875 0 L 19.1875 -55.4375 L 1.9375 -55.4375 L 1.9375 -69.203125 L 50.296875 -69.203125 L 50.296875 -55.4375 L 33.046875 -55.4375 Z M 33.046875 0 "/></g></g></g><g fill="#ffffff" fill-opacity="1"><g transform="translate(819.207508, 1092.537774)"><g><path d="M 21.609375 0 L 7.75 0 L 7.75 -69.296875 L 21.609375 -69.296875 Z M 21.609375 0 "/></g></g></g><g fill="#ffffff" fill-opacity="1"><g transform="translate(848.669358, 1092.537774)"><g><path d="M 41.09375 0.96875 C 35.144531 0.96875 29.925781 -0.03125 25.4375 -2.03125 C 20.945312 -4.039062 17.21875 -6.738281 14.25 -10.125 C 11.28125 -13.519531 9.050781 -17.347656 7.5625 -21.609375 C 6.070312 -25.878906 5.328125 -30.257812 5.328125 -34.75 C 5.328125 -39.238281 6.070312 -43.613281 7.5625 -47.875 C 9.050781 -52.144531 11.28125 -55.972656 14.25 -59.359375 C 17.21875 -62.753906 20.945312 -65.453125 25.4375 -67.453125 C 29.925781 -69.460938 35.144531 -70.46875 41.09375 -70.46875 C 47.039062 -70.46875 52.257812 -69.460938 56.75 -67.453125 C 61.238281 -65.453125 64.96875 -62.753906 67.9375 -59.359375 C 70.914062 -55.972656 73.144531 -52.144531 74.625 -47.875 C 76.113281 -43.613281 76.859375 -39.238281 76.859375 -34.75 C 76.859375 -30.257812 76.113281 -25.878906 74.625 -21.609375 C 73.144531 -17.347656 70.914062 -13.519531 67.9375 -10.125 C 64.96875 -6.738281 61.238281 -4.039062 56.75 -2.03125 C 52.257812 -0.03125 47.039062 0.96875 41.09375 0.96875 Z M 41.09375 -13.375 C 45.03125 -13.375 48.421875 -14.148438 51.265625 -15.703125 C 54.109375 -17.253906 56.367188 -19.304688 58.046875 -21.859375 C 59.734375 -24.410156 60.867188 -27.203125 61.453125 -30.234375 C 62.035156 -33.273438 62.035156 -36.3125 61.453125 -39.34375 C 60.867188 -42.382812 59.734375 -45.179688 58.046875 -47.734375 C 56.367188 -50.285156 54.109375 -52.335938 51.265625 -53.890625 C 48.421875 -55.441406 45.03125 -56.21875 41.09375 -56.21875 C 37.15625 -56.21875 33.765625 -55.441406 30.921875 -53.890625 C 28.078125 -52.335938 25.8125 -50.285156 24.125 -47.734375 C 22.445312 -45.179688 21.316406 -42.382812 20.734375 -39.34375 C 20.160156 -36.3125 20.160156 -33.273438 20.734375 -30.234375 C 21.316406 -27.203125 22.445312 -24.410156 24.125 -21.859375 C 25.8125 -19.304688 28.078125 -17.253906 30.921875 -15.703125 C 33.765625 -14.148438 37.15625 -13.375 41.09375 -13.375 Z M 41.09375 -13.375 "/></g></g></g><g fill="#ffffff" fill-opacity="1"><g transform="translate(930.755624, 1092.537774)"><g><path d="M 21.609375 -37.703125 L 21.609375 0 L 7.75 0 L 7.75 -70.75 L 11.4375 -70.75 L 46.421875 -30.046875 L 46.421875 -69.203125 L 60.375 -69.203125 L 60.375 1.453125 L 56.703125 1.453125 Z M 21.609375 -37.703125 "/></g></g></g><g fill="#ffffff" fill-opacity="1"><g transform="translate(998.983188, 1092.537774)"><g/></g></g><g fill="#ffffff" fill-opacity="1"><g transform="translate(1026.506776, 1092.537774)"><g><path d="M 51.859375 -53.203125 C 50.566406 -53.921875 49 -54.601562 47.15625 -55.25 C 45.3125 -55.894531 42.867188 -56.21875 39.828125 -56.21875 C 35.890625 -56.21875 32.53125 -55.457031 29.75 -53.9375 C 26.976562 -52.414062 24.75 -50.394531 23.0625 -47.875 C 21.382812 -45.351562 20.253906 -42.585938 19.671875 -39.578125 C 19.085938 -36.578125 19.085938 -33.578125 19.671875 -30.578125 C 20.253906 -27.578125 21.382812 -24.816406 23.0625 -22.296875 C 24.75 -19.773438 26.976562 -17.753906 29.75 -16.234375 C 32.53125 -14.710938 35.890625 -13.953125 39.828125 -13.953125 C 42.867188 -13.953125 45.535156 -14.304688 47.828125 -15.015625 C 50.117188 -15.734375 51.910156 -16.414062 53.203125 -17.0625 L 55.046875 -2.71875 C 52.921875 -1.875 50.46875 -1.175781 47.6875 -0.625 C 44.90625 -0.0820312 42.285156 0.1875 39.828125 0.1875 C 33.953125 0.1875 28.816406 -0.796875 24.421875 -2.765625 C 20.023438 -4.734375 16.359375 -7.394531 13.421875 -10.75 C 10.484375 -14.113281 8.285156 -17.878906 6.828125 -22.046875 C 5.378906 -26.210938 4.65625 -30.523438 4.65625 -34.984375 C 4.65625 -39.441406 5.378906 -43.753906 6.828125 -47.921875 C 8.285156 -52.085938 10.484375 -55.851562 13.421875 -59.21875 C 16.359375 -62.582031 20.023438 -65.25 24.421875 -67.21875 C 28.816406 -69.1875 33.953125 -70.171875 39.828125 -70.171875 C 44.867188 -70.171875 49.425781 -69.265625 53.5 -67.453125 Z M 51.859375 -53.203125 "/></g></g></g><g fill="#ffffff" fill-opacity="1"><g transform="translate(1084.849025, 1092.537774)"><g><path d="M 43.609375 0 L 7.75 0 L 7.75 -69.296875 L 42.453125 -69.296875 L 42.453125 -55.4375 L 21.609375 -55.4375 L 21.609375 -41.578125 L 39.828125 -41.578125 L 39.828125 -27.71875 L 21.609375 -27.71875 L 21.609375 -13.859375 L 43.609375 -13.859375 Z M 43.609375 0 "/></g></g></g><g fill="#ffffff" fill-opacity="1"><g transform="translate(1133.693779, 1092.537774)"><g><path d="M 21.609375 -37.703125 L 21.609375 0 L 7.75 0 L 7.75 -70.75 L 11.4375 -70.75 L 46.421875 -30.046875 L 46.421875 -69.203125 L 60.375 -69.203125 L 60.375 1.453125 L 56.703125 1.453125 Z M 21.609375 -37.703125 "/></g></g></g><g fill="#ffffff" fill-opacity="1"><g transform="translate(1201.921251, 1092.537774)"><g><path d="M 33.046875 0 L 19.1875 0 L 19.1875 -55.4375 L 1.9375 -55.4375 L 1.9375 -69.203125 L 50.296875 -69.203125 L 50.296875 -55.4375 L 33.046875 -55.4375 Z M 33.046875 0 "/></g></g></g><g fill="#ffffff" fill-opacity="1"><g transform="translate(1254.933301, 1092.537774)"><g><path d="M 43.609375 0 L 7.75 0 L 7.75 -69.296875 L 42.453125 -69.296875 L 42.453125 -55.4375 L 21.609375 -55.4375 L 21.609375 -41.578125 L 39.828125 -41.578125 L 39.828125 -27.71875 L 21.609375 -27.71875 L 21.609375 -13.859375 L 43.609375 -13.859375 Z M 43.609375 0 "/></g></g></g><g fill="#ffffff" fill-opacity="1"><g transform="translate(1303.778054, 1092.537774)"><g><path d="M 42.265625 0 L 28.296875 -26.453125 L 21.609375 -26.453125 L 21.609375 0 L 7.75 0 L 7.75 -69.296875 L 35.078125 -69.296875 C 39.210938 -69.296875 42.71875 -68.4375 45.59375 -66.71875 C 48.476562 -65.007812 50.726562 -62.78125 52.34375 -60.03125 C 53.957031 -57.289062 54.957031 -54.320312 55.34375 -51.125 C 55.726562 -47.925781 55.484375 -44.789062 54.609375 -41.71875 C 53.742188 -38.65625 52.257812 -35.941406 50.15625 -33.578125 C 48.050781 -31.222656 45.289062 -29.5625 41.875 -28.59375 L 57.953125 0 Z M 21.609375 -39.9375 L 33.828125 -39.9375 C 35.703125 -39.9375 37.203125 -40.453125 38.328125 -41.484375 C 39.460938 -42.515625 40.222656 -43.804688 40.609375 -45.359375 C 40.992188 -46.910156 40.992188 -48.460938 40.609375 -50.015625 C 40.222656 -51.566406 39.460938 -52.859375 38.328125 -53.890625 C 37.203125 -54.921875 35.703125 -55.4375 33.828125 -55.4375 L 21.609375 -55.4375 Z M 21.609375 -39.9375 "/></g></g></g></svg>