<svg xmlns="http://www.w3.org/2000/svg" xmlns:xlink="http://www.w3.org/1999/xlink" width="2000" zoomAndPan="magnify" viewBox="0 0 1500 1499.999933" height="2000" preserveAspectRatio="xMidYMid meet" version="1.0"><defs><g/><clipPath id="523f91260f"><path d="M 438 489 L 971 489 L 971 1084.710938 L 438 1084.710938 Z M 438 489 " clip-rule="nonzero"/></clipPath></defs><rect x="-150" width="1800" fill="#ffffff" y="-149.999993" height="1799.99992" fill-opacity="1"/><rect x="-150" width="1800" fill="#3e5379" y="-149.999993" height="1799.99992" fill-opacity="1"/><g clip-path="url(#523f91260f)"><path fill="#ffffff" d="M 889.136719 1044.292969 C 945.992188 1006.554688 976.097656 955.6875 968.847656 885.492188 C 965.039062 848.773438 949.585938 818.574219 922.429688 794.105469 C 917.03125 789.253906 915.292969 785.734375 921.738281 780.050781 C 932.722656 770.347656 942.210938 759.242188 949.632812 746.425781 C 967.015625 716.371094 972.675781 684.503906 969.035156 649.808594 C 964.730469 608.886719 945.851562 575.996094 916.601562 549.269531 C 874.082031 510.390625 821.769531 493.648438 765.269531 489.867188 C 692.574219 485.015625 625.277344 500.285156 564.925781 543.632812 C 520.027344 575.878906 485.617188 616.472656 463.71875 666.550781 C 443.265625 713.324219 435.277344 762.597656 440.199219 814.414062 C 446.238281 878.117188 469.589844 934 511.230469 981.371094 C 571.273438 1049.6875 647.726562 1084.195312 742.914062 1084.597656 C 792.375 1083.027344 843.621094 1074.492188 889.136719 1044.292969 Z M 603.683594 973.476562 C 564.09375 944.988281 535.890625 907.203125 519.71875 860.1875 C 500.789062 805.1875 503 751.183594 524.925781 698.390625 C 544.070312 652.332031 575.957031 616.351562 619.164062 590.359375 C 656.40625 567.960938 696.09375 556.425781 740.773438 558.664062 C 774.683594 556.449219 808.167969 563.585938 839.4375 578.96875 C 885.925781 601.871094 913.082031 643.222656 898.503906 696.132812 C 888.851562 731.183594 866.472656 749.757812 828.070312 753.632812 C 803.078125 756.152344 779.179688 750.898438 756.753906 740.078125 C 733.996094 729.113281 710.957031 738.699219 698.28125 752.132812 C 684.34375 766.878906 681.492188 792.109375 690.886719 810.941406 C 702.109375 833.460938 736.328125 843.734375 758.726562 832.652344 C 787.738281 818.289062 818.320312 814.960938 849.589844 824.589844 C 893.320312 838.050781 914.460938 894.976562 895.296875 937.304688 C 875.4375 981.179688 837.34375 1000.820312 793.328125 1009.953125 C 725.460938 1024.054688 660.804688 1014.566406 603.683594 973.476562 Z M 603.683594 973.476562 " fill-opacity="1" fill-rule="nonzero"/></g><path fill="#ffffff" d="M 823.3125 936.523438 C 837.128906 928.292969 841.648438 911.863281 836.464844 895.738281 C 831.96875 881.757812 821.199219 875.097656 804.433594 874.550781 C 793.46875 874.195312 784.71875 879.640625 775.351562 883.5625 C 739.324219 898.640625 704.890625 893.980469 674.476562 871.199219 C 640.664062 845.875 626.394531 811.082031 633.054688 768.210938 C 640.257812 721.792969 682.253906 685.027344 728.289062 682.101562 C 749.050781 680.796875 768.074219 685.433594 786.644531 694.421875 C 806.40625 703.980469 828.378906 698.273438 834.917969 681.816406 C 841.71875 664.765625 840.246094 643.652344 816.25 632.261719 C 790.949219 620.226562 764.863281 612.261719 736.519531 613.355469 C 731.382812 613.355469 726.199219 613.046875 721.085938 613.449219 C 715.996094 613.832031 710.929688 614.757812 705.914062 615.710938 C 646.988281 626.695312 604.328125 659.894531 578.691406 713.324219 C 557.8125 756.820312 555.933594 802.070312 573.792969 847.800781 C 594.625 901.113281 632.910156 935.5 686.535156 953.121094 C 712.785156 961.75 739.988281 962.347656 767.21875 957.78125 C 787.3125 954.453125 806.003906 946.84375 823.3125 936.523438 Z M 823.3125 936.523438 " fill-opacity="1" fill-rule="nonzero"/><g fill="#ffffff" fill-opacity="1"><g transform="translate(991.432916, 513.212168)"><g><path d="M 18.75 -33.796875 L 18.40625 -50.703125 L 26.390625 -50.703125 C 28.859375 -50.703125 30.921875 -51.394531 32.578125 -52.78125 C 34.242188 -54.164062 35.035156 -56.054688 34.953125 -58.453125 C 34.878906 -60.921875 34.128906 -62.828125 32.703125 -64.171875 C 31.273438 -65.523438 29.441406 -66.453125 27.203125 -66.953125 C 24.960938 -67.460938 22.585938 -67.675781 20.078125 -67.59375 C 17.578125 -67.519531 15.242188 -67.234375 13.078125 -66.734375 C 10.921875 -66.234375 9.1875 -65.632812 7.875 -64.9375 L 5.328125 -80.5625 C 7.953125 -81.644531 11.210938 -82.515625 15.109375 -83.171875 C 19.003906 -83.828125 22.992188 -84.078125 27.078125 -83.921875 C 32.097656 -83.609375 36.5 -82.3125 40.28125 -80.03125 C 44.0625 -77.757812 47.050781 -74.769531 49.25 -71.0625 C 51.445312 -67.363281 52.585938 -63.160156 52.671875 -58.453125 C 52.742188 -55.210938 52.144531 -52.257812 50.875 -49.59375 C 49.601562 -46.9375 47.269531 -44.488281 43.875 -42.25 C 47.1875 -40.320312 49.59375 -37.71875 51.09375 -34.4375 C 52.601562 -31.15625 53.394531 -27.894531 53.46875 -24.65625 C 53.625 -20.019531 52.773438 -15.832031 50.921875 -12.09375 C 49.078125 -8.351562 46.320312 -5.363281 42.65625 -3.125 C 38.988281 -0.882812 34.453125 0.382812 29.046875 0.6875 C 26.347656 0.84375 23.320312 0.765625 19.96875 0.453125 C 16.613281 0.148438 13.445312 -0.328125 10.46875 -0.984375 C 7.5 -1.640625 5.128906 -2.316406 3.359375 -3.015625 L 5.203125 -19.796875 C 6.597656 -19.097656 8.546875 -18.398438 11.046875 -17.703125 C 13.554688 -17.015625 16.238281 -16.515625 19.09375 -16.203125 C 21.945312 -15.890625 24.664062 -15.90625 27.25 -16.25 C 29.84375 -16.601562 31.945312 -17.4375 33.5625 -18.75 C 35.1875 -20.0625 35.957031 -22.03125 35.875 -24.65625 C 35.800781 -26.96875 34.875 -29.066406 33.09375 -30.953125 C 31.320312 -32.847656 29.203125 -33.796875 26.734375 -33.796875 Z M 18.75 -33.796875 "/></g></g></g></svg>